<svg xmlns="http://www.w3.org/2000/svg" width="640" height="650" viewBox="0 0 640 650" role="img" aria-labelledby="title">
<title id="title">Claude Graft — One Mac. More Claude.</title>
<defs>
  <radialGradient id="aura"><stop stop-color="#ffad82" stop-opacity=".12"/><stop offset="1" stop-color="#ffad82" stop-opacity="0"/></radialGradient>
  <linearGradient id="signal" x1="0" y1="0" x2="1" y2="1"><stop stop-color="#d3fa80"/><stop offset="1" stop-color="#76deed"/></linearGradient>
  <pattern id="grid" width="32" height="32" patternUnits="userSpaceOnUse"><path d="M32 0H0V32" fill="none" stroke="#1c2939" stroke-width=".7"/></pattern>
  <clipPath id="card"><rect width="640" height="650" rx="24"/></clipPath>
</defs>
<style>
.sans{font-family:Arial,Helvetica,sans-serif} .mono{font-family:'Courier New',monospace}
.pulse{animation:pulse 4s ease-in-out infinite} .flow{stroke-dasharray:4 15;animation:flow 14s linear infinite}
@keyframes pulse{0%,100%{opacity:.45}50%{opacity:1}} @keyframes flow{to{stroke-dashoffset:-152}}
@media(prefers-reduced-motion:reduce){.pulse,.flow{animation:none}}
</style>
<g clip-path="url(#card)">
<rect x="0" y="0" width="640" height="650" rx="0" fill="#0d121b" stroke="none" /><rect x="0" y="0" width="640" height="650" rx="0" fill="url(#grid)" stroke="none" /><ellipse cx="512.0" cy="273.0" rx="275.2" ry="585.0" fill="url(#aura)"/><text x="34" y="43" class="mono" font-size="15" font-weight="600" fill="#ffad82" letter-spacing="1">01 / NATIVE MACOS</text><path d="M580 45L600 25M583 25H600V42" fill="none" stroke="#ffad82" stroke-width="3" stroke-linecap="round" stroke-linejoin="round" /><text x="32" y="114" class="sans" font-size="54" font-weight="700" fill="#edf4ff" letter-spacing="-2">One Mac.</text><text x="32" y="172" class="sans" font-size="54" font-weight="700" fill="#edf4ff" letter-spacing="-2">More Claude.</text><text x="34" y="215" class="sans" font-size="23" font-weight="400" fill="#a2afc0" >Separate accounts. Shared context.</text><g transform="translate(112 265) scale(1.07)"><rect x="5" y="0" width="176" height="130" rx="12" fill="#17202c" stroke="#303d4e" /><circle cx="20" cy="17" r="3" fill="#ffad82" /><text x="33" y="21" class="mono" font-size="12" font-weight="600" fill="#a2afc0" >personal</text><path d="M5 34L181 34" fill="none" stroke="#303d4e" stroke-width="1" /><rect x="21" y="49" width="30" height="30" rx="8" fill="#ffad82" stroke="none" /><path d="M30 64h12M36 58v12" fill="none" stroke="#0d121b" stroke-width="2" stroke-linecap="round" stroke-linejoin="round" /><rect x="62" y="54" width="82" height="5" rx="2" fill="#a2afc0" stroke="none" /><rect x="62" y="69" width="60" height="4" rx="2" fill="#303d4e" stroke="none" /><rect x="21" y="95" width="105" height="5" rx="2" fill="#303d4e" stroke="none" /><rect x="21" y="107" width="133" height="5" rx="2" fill="#303d4e" stroke="none" /><rect x="198" y="38" width="176" height="130" rx="12" fill="#17202c" stroke="#303d4e" /><circle cx="213" cy="55" r="3" fill="#c1acff" /><text x="226" y="59" class="mono" font-size="12" font-weight="600" fill="#a2afc0" >work</text><path d="M198 72L374 72" fill="none" stroke="#303d4e" stroke-width="1" /><rect x="214" y="87" width="30" height="30" rx="8" fill="#c1acff" stroke="none" /><path d="M223 102h12M229 96v12" fill="none" stroke="#0d121b" stroke-width="2" stroke-linecap="round" stroke-linejoin="round" /><rect x="255" y="92" width="82" height="5" rx="2" fill="#a2afc0" stroke="none" /><rect x="255" y="107" width="60" height="4" rx="2" fill="#303d4e" stroke="none" /><rect x="214" y="133" width="105" height="5" rx="2" fill="#303d4e" stroke="none" /><rect x="214" y="145" width="133" height="5" rx="2" fill="#303d4e" stroke="none" /><path d="M93 130V157Q93 175 112 175H165Q188 175 188 193M286 168V175Q286 191 268 191H208Q188 191 188 203" fill="none" stroke="#303d4e" stroke-width="2" stroke-linecap="round" stroke-linejoin="round" /><path d="M93 130V157Q93 175 112 175H165Q188 175 188 193M286 168V175Q286 191 268 191H208Q188 191 188 203" fill="none" stroke="#ffad82" stroke-width="2" stroke-linecap="round" stroke-linejoin="round" class="flow"/><rect x="75" y="202" width="227" height="44" rx="10" fill="#17202c" stroke="#ffad82" /><text x="188" y="230" class="mono" font-size="13" font-weight="600" fill="#ffad82" text-anchor="middle">SHARED CODE HISTORY</text></g><text x="34" y="615" class="mono" font-size="17" font-weight="600" fill="#ffad82" >SWIFT  /  SWIFTUI</text></g><rect x="0.5" y="0.5" width="639" height="649" rx="24" fill="none" stroke="#303d4e" /></svg>
