<svg xmlns="http://www.w3.org/2000/svg" width="640" height="650" viewBox="0 0 640 650" role="img" aria-labelledby="title"><title id="title">Reddit Activity Lab: Find patterns. Test a hunch.</title><defs><radialGradient id="aura"><stop stop-color="#ffad82" stop-opacity=".12"/><stop offset="1" stop-color="#ffad82" stop-opacity="0"/></radialGradient><linearGradient id="signal" x1="0" y1="0" x2="1" y2="1"><stop stop-color="#d3fa80"/><stop offset="1" stop-color="#76deed"/></linearGradient><pattern id="grid" width="32" height="32" patternUnits="userSpaceOnUse"><path d="M32 0H0V32" fill="none" stroke="#1c2939" stroke-width=".7"/></pattern><clipPath id="card"><rect width="640" height="650" rx="24"/></clipPath></defs><style>
.sans{font-family:Arial,Helvetica,sans-serif} .mono{font-family:'Courier New',monospace}
.pulse{animation:pulse 4s ease-in-out infinite} .flow{stroke-dasharray:4 15;animation:flow 14s linear infinite}
@keyframes pulse{0%,100%{opacity:.45}50%{opacity:1}} @keyframes flow{to{stroke-dashoffset:-152}}
@media(prefers-reduced-motion:reduce){.pulse,.flow{animation:none}}
</style><g clip-path="url(#card)"><rect x="0" y="0" width="640" height="650" rx="0" fill="#0d121b" stroke="none"/><rect x="0" y="0" width="640" height="650" rx="0" fill="url(#grid)" stroke="none"/><ellipse cx="512" cy="273" rx="275.2" ry="585" fill="url(#aura)"/><text x="34" y="43" class="mono" font-size="15" font-weight="600" fill="#ffad82" letter-spacing="1">EXPERIMENT / ANALYTICS</text><path d="M580 45L600 25M583 25H600V42" fill="none" stroke="#ffad82" stroke-width="3" stroke-linecap="round" stroke-linejoin="round"/><text x="32" y="114" class="sans" font-size="54" font-weight="700" fill="#edf4ff" letter-spacing="-2">Find patterns.</text><text x="32" y="172" class="sans" font-size="54" font-weight="700" fill="#edf4ff" letter-spacing="-2">Test a hunch.</text><text x="34" y="215" class="sans" font-size="23" font-weight="400" fill="#a2afc0">Subreddit activity, made explorable.</text><g transform="translate(112 265) scale(1.07)"><rect x="0" y="0" width="386" height="262" rx="12" fill="#17202c" stroke="#303d4e"/><circle cx="15" cy="17" r="3" fill="#ffad82"/><text x="28" y="21" class="mono" font-size="12" font-weight="600" fill="#a2afc0">reddit.activity</text><path d="M0 34l386 0" fill="none" stroke="#303d4e" stroke-width="1"/><text x="20" y="57" class="mono" font-size="12" font-weight="600" fill="#a2afc0">SUBREDDIT ACTIVITY</text><text x="20" y="86" class="mono" font-size="11" font-weight="400" fill="#a2afc0">M</text><rect x="43" y="75" width="20" height="15" rx="3" fill="#ffad82" stroke="none" opacity=".16"/><rect x="69" y="75" width="20" height="15" rx="3" fill="#ffad82" stroke="none" opacity=".42"/><rect x="95" y="75" width="20" height="15" rx="3" fill="#ffad82" stroke="none" opacity=".84"/><rect x="121" y="75" width="20" height="15" rx="3" fill="#ffad82" stroke="none" opacity=".42"/><rect x="147" y="75" width="20" height="15" rx="3" fill="#ffad82" stroke="none" opacity=".84"/><rect x="173" y="75" width="20" height="15" rx="3" fill="#ffad82" stroke="none" opacity=".27"/><rect x="199" y="75" width="20" height="15" rx="3" fill="#ffad82" stroke="none" opacity=".84"/><rect x="225" y="75" width="20" height="15" rx="3" fill="#ffad82" stroke="none" opacity=".27"/><rect x="251" y="75" width="20" height="15" rx="3" fill="#ffad82" stroke="none" opacity=".64"/><rect x="277" y="75" width="20" height="15" rx="3" fill="#ffad82" stroke="none" opacity=".27"/><rect x="303" y="75" width="20" height="15" rx="3" fill="#ffad82" stroke="none" opacity=".64"/><rect x="329" y="75" width="20" height="15" rx="3" fill="#ffad82" stroke="none" opacity=".16"/><text x="20" y="107" class="mono" font-size="11" font-weight="400" fill="#a2afc0">T</text><rect x="43" y="96" width="20" height="15" rx="3" fill="#ffad82" stroke="none" opacity=".64"/><rect x="69" y="96" width="20" height="15" rx="3" fill="#ffad82" stroke="none" opacity=".16"/><rect x="95" y="96" width="20" height="15" rx="3" fill="#ffad82" stroke="none" opacity=".42"/><rect x="121" y="96" width="20" height="15" rx="3" fill="#ffad82" stroke="none" opacity=".16"/><rect x="147" y="96" width="20" height="15" rx="3" fill="#ffad82" stroke="none" opacity=".42"/><rect x="173" y="96" width="20" height="15" rx="3" fill="#ffad82" stroke="none" opacity=".84"/><rect x="199" y="96" width="20" height="15" rx="3" fill="#ffad82" stroke="none" opacity=".42"/><rect x="225" y="96" width="20" height="15" rx="3" fill="#ffad82" stroke="none" opacity=".84"/><rect x="251" y="96" width="20" height="15" rx="3" fill="#ffad82" stroke="none" opacity=".27"/><rect x="277" y="96" width="20" height="15" rx="3" fill="#ffad82" stroke="none" opacity=".84"/><rect x="303" y="96" width="20" height="15" rx="3" fill="#ffad82" stroke="none" opacity=".27"/><rect x="329" y="96" width="20" height="15" rx="3" fill="#ffad82" stroke="none" opacity=".64"/><text x="20" y="128" class="mono" font-size="11" font-weight="400" fill="#a2afc0">W</text><rect x="43" y="117" width="20" height="15" rx="3" fill="#ffad82" stroke="none" opacity=".27"/><rect x="69" y="117" width="20" height="15" rx="3" fill="#ffad82" stroke="none" opacity=".64"/><rect x="95" y="117" width="20" height="15" rx="3" fill="#ffad82" stroke="none" opacity=".16"/><rect x="121" y="117" width="20" height="15" rx="3" fill="#ffad82" stroke="none" opacity=".64"/><rect x="147" y="117" width="20" height="15" rx="3" fill="#ffad82" stroke="none" opacity=".16"/><rect x="173" y="117" width="20" height="15" rx="3" fill="#ffad82" stroke="none" opacity=".42"/><rect x="199" y="117" width="20" height="15" rx="3" fill="#ffad82" stroke="none" opacity=".16"/><rect x="225" y="117" width="20" height="15" rx="3" fill="#ffad82" stroke="none" opacity=".42"/><rect x="251" y="117" width="20" height="15" rx="3" fill="#ffad82" stroke="none" opacity=".84"/><rect x="277" y="117" width="20" height="15" rx="3" fill="#ffad82" stroke="none" opacity=".42"/><rect x="303" y="117" width="20" height="15" rx="3" fill="#ffad82" stroke="none" opacity=".84"/><rect x="329" y="117" width="20" height="15" rx="3" fill="#ffad82" stroke="none" opacity=".27"/><text x="20" y="149" class="mono" font-size="11" font-weight="400" fill="#a2afc0">T</text><rect x="43" y="138" width="20" height="15" rx="3" fill="#ffad82" stroke="none" opacity=".84"/><rect x="69" y="138" width="20" height="15" rx="3" fill="#ffad82" stroke="none" opacity=".27"/><rect x="95" y="138" width="20" height="15" rx="3" fill="#ffad82" stroke="none" opacity=".64"/><rect x="121" y="138" width="20" height="15" rx="3" fill="#ffad82" stroke="none" opacity=".27"/><rect x="147" y="138" width="20" height="15" rx="3" fill="#ffad82" stroke="none" opacity=".64"/><rect x="173" y="138" width="20" height="15" rx="3" fill="#ffad82" stroke="none" opacity=".16"/><rect x="199" y="138" width="20" height="15" rx="3" fill="#ffad82" stroke="none" opacity=".64"/><rect x="225" y="138" width="20" height="15" rx="3" fill="#ffad82" stroke="none" opacity=".16"/><rect x="251" y="138" width="20" height="15" rx="3" fill="#ffad82" stroke="none" opacity=".42"/><rect x="277" y="138" width="20" height="15" rx="3" fill="#ffad82" stroke="none" opacity=".16"/><rect x="303" y="138" width="20" height="15" rx="3" fill="#ffad82" stroke="none" opacity=".42"/><rect x="329" y="138" width="20" height="15" rx="3" fill="#ffad82" stroke="none" opacity=".84"/><text x="20" y="170" class="mono" font-size="11" font-weight="400" fill="#a2afc0">F</text><rect x="43" y="159" width="20" height="15" rx="3" fill="#ffad82" stroke="none" opacity=".42"/><rect x="69" y="159" width="20" height="15" rx="3" fill="#ffad82" stroke="none" opacity=".84"/><rect x="95" y="159" width="20" height="15" rx="3" fill="#ffad82" stroke="none" opacity=".27"/><rect x="121" y="159" width="20" height="15" rx="3" fill="#ffad82" stroke="none" opacity=".84"/><rect x="147" y="159" width="20" height="15" rx="3" fill="#ffad82" stroke="none" opacity=".27"/><rect x="173" y="159" width="20" height="15" rx="3" fill="#ffad82" stroke="none" opacity=".64"/><rect x="199" y="159" width="20" height="15" rx="3" fill="#ffad82" stroke="none" opacity=".27"/><rect x="225" y="159" width="20" height="15" rx="3" fill="#ffad82" stroke="none" opacity=".64"/><rect x="251" y="159" width="20" height="15" rx="3" fill="#ffad82" stroke="none" opacity=".16"/><rect x="277" y="159" width="20" height="15" rx="3" fill="#ffad82" stroke="none" opacity=".64"/><rect x="303" y="159" width="20" height="15" rx="3" fill="#ffad82" stroke="none" opacity=".16"/><rect x="329" y="159" width="20" height="15" rx="3" fill="#ffad82" stroke="none" opacity=".42"/><text x="20" y="191" class="mono" font-size="11" font-weight="400" fill="#a2afc0">S</text><rect x="43" y="180" width="20" height="15" rx="3" fill="#ffad82" stroke="none" opacity=".16"/><rect x="69" y="180" width="20" height="15" rx="3" fill="#ffad82" stroke="none" opacity=".42"/><rect x="95" y="180" width="20" height="15" rx="3" fill="#ffad82" stroke="none" opacity=".84"/><rect x="121" y="180" width="20" height="15" rx="3" fill="#ffad82" stroke="none" opacity=".42"/><rect x="147" y="180" width="20" height="15" rx="3" fill="#ffad82" stroke="none" opacity=".84"/><rect x="173" y="180" width="20" height="15" rx="3" fill="#ffad82" stroke="none" opacity=".27"/><rect x="199" y="180" width="20" height="15" rx="3" fill="#ffad82" stroke="none" opacity=".84"/><rect x="225" y="180" width="20" height="15" rx="3" fill="#ffad82" stroke="none" opacity=".27"/><rect x="251" y="180" width="20" height="15" rx="3" fill="#ffad82" stroke="none" opacity=".64"/><rect x="277" y="180" width="20" height="15" rx="3" fill="#ffad82" stroke="none" opacity=".27"/><rect x="303" y="180" width="20" height="15" rx="3" fill="#ffad82" stroke="none" opacity=".64"/><rect x="329" y="180" width="20" height="15" rx="3" fill="#ffad82" stroke="none" opacity=".16"/><text x="20" y="212" class="mono" font-size="11" font-weight="400" fill="#a2afc0">S</text><rect x="43" y="201" width="20" height="15" rx="3" fill="#ffad82" stroke="none" opacity=".64"/><rect x="69" y="201" width="20" height="15" rx="3" fill="#ffad82" stroke="none" opacity=".16"/><rect x="95" y="201" width="20" height="15" rx="3" fill="#ffad82" stroke="none" opacity=".42"/><rect x="121" y="201" width="20" height="15" rx="3" fill="#ffad82" stroke="none" opacity=".16"/><rect x="147" y="201" width="20" height="15" rx="3" fill="#ffad82" stroke="none" opacity=".42"/><rect x="173" y="201" width="20" height="15" rx="3" fill="#ffad82" stroke="none" opacity=".84"/><rect x="199" y="201" width="20" height="15" rx="3" fill="#ffad82" stroke="none" opacity=".42"/><rect x="225" y="201" width="20" height="15" rx="3" fill="#ffad82" stroke="none" opacity=".84"/><rect x="251" y="201" width="20" height="15" rx="3" fill="#ffad82" stroke="none" opacity=".27"/><rect x="277" y="201" width="20" height="15" rx="3" fill="#ffad82" stroke="none" opacity=".84"/><rect x="303" y="201" width="20" height="15" rx="3" fill="#ffad82" stroke="none" opacity=".27"/><rect x="329" y="201" width="20" height="15" rx="3" fill="#ffad82" stroke="none" opacity=".64"/><text x="20" y="245" class="mono" font-size="11" font-weight="400" fill="#a2afc0">ILLUSTRATIVE HEATMAP</text><rect x="279" y="234" width="11" height="11" rx="2" fill="#ffad82" stroke="none" opacity=".2"/><rect x="294" y="234" width="11" height="11" rx="2" fill="#ffad82" stroke="none" opacity=".4"/><rect x="309" y="234" width="11" height="11" rx="2" fill="#ffad82" stroke="none" opacity=".6"/><rect x="324" y="234" width="11" height="11" rx="2" fill="#ffad82" stroke="none" opacity=".8"/><rect x="339" y="234" width="11" height="11" rx="2" fill="#ffad82" stroke="none" opacity="1"/></g><text x="34" y="615" class="mono" font-size="17" font-weight="600" fill="#ffad82">JAVASCRIPT  /  PYTHON  /  SQLITE</text></g><rect x=".5" y=".5" width="639" height="649" rx="24" fill="none" stroke="#303d4e"/></svg>
